ISO-10303-21;
HEADER;
FILE_DESCRIPTION(('Open CASCADE Model'),'2;1');
FILE_NAME('Open CASCADE Shape Model','2026-08-02T13:12:49',('Author'),(
    'Open CASCADE'),'Open CASCADE STEP processor 7.9','Open CASCADE 7.9'
  ,'Unknown');
FILE_SCHEMA(('AUTOMOTIVE_DESIGN { 1 0 10303 214 1 1 1 1 }'));
ENDSEC;
DATA;
#1 = APPLICATION_PROTOCOL_DEFINITION('international standard',
  'automotive_design',2000,#2);
#2 = APPLICATION_CONTEXT(
  'core data for automotive mechanical design processes');
#3 = SHAPE_DEFINITION_REPRESENTATION(#4,#10);
#4 = PRODUCT_DEFINITION_SHAPE('','',#5);
#5 = PRODUCT_DEFINITION('design','',#6,#9);
#6 = PRODUCT_DEFINITION_FORMATION('','',#7);
#7 = PRODUCT('6c7ae412-8e28-11f1-a379-de0ea6d7b110',
  '6c7ae412-8e28-11f1-a379-de0ea6d7b110','',(#8));
#8 = PRODUCT_CONTEXT('',#2,'mechanical');
#9 = PRODUCT_DEFINITION_CONTEXT('part definition',#2,'design');
#10 = SHAPE_REPRESENTATION('',(#11,#15,#19),#23);
#11 = AXIS2_PLACEMENT_3D('',#12,#13,#14);
#12 = CARTESIAN_POINT('',(0.,0.,0.));
#13 = DIRECTION('',(0.,0.,1.));
#14 = DIRECTION('',(1.,0.,-0.));
#15 = AXIS2_PLACEMENT_3D('',#16,#17,#18);
#16 = CARTESIAN_POINT('',(0.,0.,0.));
#17 = DIRECTION('',(0.,0.,1.));
#18 = DIRECTION('',(1.,0.,-0.));
#19 = AXIS2_PLACEMENT_3D('',#20,#21,#22);
#20 = CARTESIAN_POINT('',(0.,0.,0.));
#21 = DIRECTION('',(0.,0.,1.));
#22 = DIRECTION('',(1.,0.,-0.));
#23 = ( GEOMETRIC_REPRESENTATION_CONTEXT(3) 
GLOBAL_UNCERTAINTY_ASSIGNED_CONTEXT((#27)) GLOBAL_UNIT_ASSIGNED_CONTEXT(
(#24,#25,#26)) REPRESENTATION_CONTEXT('Context #1',
  '3D Context with UNIT and UNCERTAINTY') );
#24 = ( LENGTH_UNIT() NAMED_UNIT(*) SI_UNIT(.MILLI.,.METRE.) );
#25 = ( NAMED_UNIT(*) PLANE_ANGLE_UNIT() SI_UNIT($,.RADIAN.) );
#26 = ( NAMED_UNIT(*) SI_UNIT($,.STERADIAN.) SOLID_ANGLE_UNIT() );
#27 = UNCERTAINTY_MEASURE_WITH_UNIT(LENGTH_MEASURE(1.E-07),#24,
  'distance_accuracy_value','confusion accuracy');
#28 = PRODUCT_RELATED_PRODUCT_CATEGORY('part',$,(#7));
#29 = SHAPE_DEFINITION_REPRESENTATION(#30,#36);
#30 = PRODUCT_DEFINITION_SHAPE('','',#31);
#31 = PRODUCT_DEFINITION('design','',#32,#35);
#32 = PRODUCT_DEFINITION_FORMATION('','',#33);
#33 = PRODUCT('6c7c95aa-8e28-11f1-a379-de0ea6d7b110',
  '6c7c95aa-8e28-11f1-a379-de0ea6d7b110','',(#34));
#34 = PRODUCT_CONTEXT('',#2,'mechanical');
#35 = PRODUCT_DEFINITION_CONTEXT('part definition',#2,'design');
#36 = ADVANCED_BREP_SHAPE_REPRESENTATION('',(#11,#37),#135);
#37 = MANIFOLD_SOLID_BREP('',#38);
#38 = CLOSED_SHELL('',(#39,#127,#131));
#39 = ADVANCED_FACE('',(#40),#54,.T.);
#40 = FACE_BOUND('',#41,.F.);
#41 = EDGE_LOOP('',(#42,#72,#99,#100));
#42 = ORIENTED_EDGE('',*,*,#43,.T.);
#43 = EDGE_CURVE('',#44,#46,#48,.T.);
#44 = VERTEX_POINT('',#45);
#45 = CARTESIAN_POINT('',(1.,0.,0.));
#46 = VERTEX_POINT('',#47);
#47 = CARTESIAN_POINT('',(1.,0.,3.));
#48 = SEAM_CURVE('',#49,(#53,#65),.PCURVE_S1.);
#49 = LINE('',#50,#51);
#50 = CARTESIAN_POINT('',(1.,0.,0.));
#51 = VECTOR('',#52,1.);
#52 = DIRECTION('',(0.,0.,1.));
#53 = PCURVE('',#54,#59);
#54 = CYLINDRICAL_SURFACE('',#55,1.);
#55 = AXIS2_PLACEMENT_3D('',#56,#57,#58);
#56 = CARTESIAN_POINT('',(0.,0.,0.));
#57 = DIRECTION('',(-0.,-0.,-1.));
#58 = DIRECTION('',(1.,0.,0.));
#59 = DEFINITIONAL_REPRESENTATION('',(#60),#64);
#60 = LINE('',#61,#62);
#61 = CARTESIAN_POINT('',(-0.,0.));
#62 = VECTOR('',#63,1.);
#63 = DIRECTION('',(-0.,-1.));
#64 = ( GEOMETRIC_REPRESENTATION_CONTEXT(2) 
PARAMETRIC_REPRESENTATION_CONTEXT() REPRESENTATION_CONTEXT('2D SPACE',''
  ) );
#65 = PCURVE('',#54,#66);
#66 = DEFINITIONAL_REPRESENTATION('',(#67),#71);
#67 = LINE('',#68,#69);
#68 = CARTESIAN_POINT('',(-6.28318530718,0.));
#69 = VECTOR('',#70,1.);
#70 = DIRECTION('',(-0.,-1.));
#71 = ( GEOMETRIC_REPRESENTATION_CONTEXT(2) 
PARAMETRIC_REPRESENTATION_CONTEXT() REPRESENTATION_CONTEXT('2D SPACE',''
  ) );
#72 = ORIENTED_EDGE('',*,*,#73,.T.);
#73 = EDGE_CURVE('',#46,#46,#74,.T.);
#74 = SURFACE_CURVE('',#75,(#80,#87),.PCURVE_S1.);
#75 = CIRCLE('',#76,1.);
#76 = AXIS2_PLACEMENT_3D('',#77,#78,#79);
#77 = CARTESIAN_POINT('',(0.,0.,3.));
#78 = DIRECTION('',(0.,0.,1.));
#79 = DIRECTION('',(1.,0.,0.));
#80 = PCURVE('',#54,#81);
#81 = DEFINITIONAL_REPRESENTATION('',(#82),#86);
#82 = LINE('',#83,#84);
#83 = CARTESIAN_POINT('',(-0.,-3.));
#84 = VECTOR('',#85,1.);
#85 = DIRECTION('',(-1.,0.));
#86 = ( GEOMETRIC_REPRESENTATION_CONTEXT(2) 
PARAMETRIC_REPRESENTATION_CONTEXT() REPRESENTATION_CONTEXT('2D SPACE',''
  ) );
#87 = PCURVE('',#88,#93);
#88 = PLANE('',#89);
#89 = AXIS2_PLACEMENT_3D('',#90,#91,#92);
#90 = CARTESIAN_POINT('',(-6.409875621279E-17,8.737595245399E-17,3.));
#91 = DIRECTION('',(0.,0.,1.));
#92 = DIRECTION('',(1.,0.,-0.));
#93 = DEFINITIONAL_REPRESENTATION('',(#94),#98);
#94 = CIRCLE('',#95,1.);
#95 = AXIS2_PLACEMENT_2D('',#96,#97);
#96 = CARTESIAN_POINT('',(6.409875621279E-17,-8.737595245399E-17));
#97 = DIRECTION('',(1.,0.));
#98 = ( GEOMETRIC_REPRESENTATION_CONTEXT(2) 
PARAMETRIC_REPRESENTATION_CONTEXT() REPRESENTATION_CONTEXT('2D SPACE',''
  ) );
#99 = ORIENTED_EDGE('',*,*,#43,.F.);
#100 = ORIENTED_EDGE('',*,*,#101,.F.);
#101 = EDGE_CURVE('',#44,#44,#102,.T.);
#102 = SURFACE_CURVE('',#103,(#108,#115),.PCURVE_S1.);
#103 = CIRCLE('',#104,1.);
#104 = AXIS2_PLACEMENT_3D('',#105,#106,#107);
#105 = CARTESIAN_POINT('',(0.,0.,0.));
#106 = DIRECTION('',(0.,0.,1.));
#107 = DIRECTION('',(1.,0.,0.));
#108 = PCURVE('',#54,#109);
#109 = DEFINITIONAL_REPRESENTATION('',(#110),#114);
#110 = LINE('',#111,#112);
#111 = CARTESIAN_POINT('',(-0.,0.));
#112 = VECTOR('',#113,1.);
#113 = DIRECTION('',(-1.,0.));
#114 = ( GEOMETRIC_REPRESENTATION_CONTEXT(2) 
PARAMETRIC_REPRESENTATION_CONTEXT() REPRESENTATION_CONTEXT('2D SPACE',''
  ) );
#115 = PCURVE('',#116,#121);
#116 = PLANE('',#117);
#117 = AXIS2_PLACEMENT_3D('',#118,#119,#120);
#118 = CARTESIAN_POINT('',(-6.409875621279E-17,8.737595245399E-17,0.));
#119 = DIRECTION('',(0.,0.,1.));
#120 = DIRECTION('',(1.,0.,-0.));
#121 = DEFINITIONAL_REPRESENTATION('',(#122),#126);
#122 = CIRCLE('',#123,1.);
#123 = AXIS2_PLACEMENT_2D('',#124,#125);
#124 = CARTESIAN_POINT('',(6.409875621279E-17,-8.737595245399E-17));
#125 = DIRECTION('',(1.,0.));
#126 = ( GEOMETRIC_REPRESENTATION_CONTEXT(2) 
PARAMETRIC_REPRESENTATION_CONTEXT() REPRESENTATION_CONTEXT('2D SPACE',''
  ) );
#127 = ADVANCED_FACE('',(#128),#116,.F.);
#128 = FACE_BOUND('',#129,.F.);
#129 = EDGE_LOOP('',(#130));
#130 = ORIENTED_EDGE('',*,*,#101,.T.);
#131 = ADVANCED_FACE('',(#132),#88,.T.);
#132 = FACE_BOUND('',#133,.T.);
#133 = EDGE_LOOP('',(#134));
#134 = ORIENTED_EDGE('',*,*,#73,.T.);
#135 = ( GEOMETRIC_REPRESENTATION_CONTEXT(3) 
GLOBAL_UNCERTAINTY_ASSIGNED_CONTEXT((#139)) GLOBAL_UNIT_ASSIGNED_CONTEXT
((#136,#137,#138)) REPRESENTATION_CONTEXT('Context #1',
  '3D Context with UNIT and UNCERTAINTY') );
#136 = ( LENGTH_UNIT() NAMED_UNIT(*) SI_UNIT(.MILLI.,.METRE.) );
#137 = ( NAMED_UNIT(*) PLANE_ANGLE_UNIT() SI_UNIT($,.RADIAN.) );
#138 = ( NAMED_UNIT(*) SI_UNIT($,.STERADIAN.) SOLID_ANGLE_UNIT() );
#139 = UNCERTAINTY_MEASURE_WITH_UNIT(LENGTH_MEASURE(1.E-07),#136,
  'distance_accuracy_value','confusion accuracy');
#140 = CONTEXT_DEPENDENT_SHAPE_REPRESENTATION(#141,#143);
#141 = ( REPRESENTATION_RELATIONSHIP('','',#36,#10) 
REPRESENTATION_RELATIONSHIP_WITH_TRANSFORMATION(#142) 
SHAPE_REPRESENTATION_RELATIONSHIP() );
#142 = ITEM_DEFINED_TRANSFORMATION('','',#11,#15);
#143 = PRODUCT_DEFINITION_SHAPE('Placement','Placement of an item',#144
  );
#144 = NEXT_ASSEMBLY_USAGE_OCCURRENCE('1',
  '6c7c95aa-8e28-11f1-a379-de0ea6d7b110','',#5,#31,$);
#145 = PRODUCT_RELATED_PRODUCT_CATEGORY('part',$,(#33));
#146 = SHAPE_DEFINITION_REPRESENTATION(#147,#153);
#147 = PRODUCT_DEFINITION_SHAPE('','',#148);
#148 = PRODUCT_DEFINITION('design','',#149,#152);
#149 = PRODUCT_DEFINITION_FORMATION('','',#150);
#150 = PRODUCT('6c7ff4e8-8e28-11f1-a379-de0ea6d7b110',
  '6c7ff4e8-8e28-11f1-a379-de0ea6d7b110','',(#151));
#151 = PRODUCT_CONTEXT('',#2,'mechanical');
#152 = PRODUCT_DEFINITION_CONTEXT('part definition',#2,'design');
#153 = ADVANCED_BREP_SHAPE_REPRESENTATION('',(#11,#154),#360);
#154 = MANIFOLD_SOLID_BREP('',#155);
#155 = CLOSED_SHELL('',(#156,#264,#303,#333));
#156 = ADVANCED_FACE('',(#157),#171,.T.);
#157 = FACE_BOUND('',#158,.T.);
#158 = EDGE_LOOP('',(#159,#195,#229,#230));
#159 = ORIENTED_EDGE('',*,*,#160,.T.);
#160 = EDGE_CURVE('',#161,#163,#165,.T.);
#161 = VERTEX_POINT('',#162);
#162 = CARTESIAN_POINT('',(-1.,-2.,0.));
#163 = VERTEX_POINT('',#164);
#164 = CARTESIAN_POINT('',(-1.,-2.,0.5));
#165 = SEAM_CURVE('',#166,(#170,#188),.PCURVE_S1.);
#166 = LINE('',#167,#168);
#167 = CARTESIAN_POINT('',(-1.,-2.,0.));
#168 = VECTOR('',#169,1.);
#169 = DIRECTION('',(0.,0.,1.));
#170 = PCURVE('',#171,#182);
#171 = SURFACE_OF_LINEAR_EXTRUSION('',#172,#180);
#172 = B_SPLINE_CURVE_WITH_KNOTS('',3,(#173,#174,#175,#176,#177,#178,
    #179),.UNSPECIFIED.,.T.,.F.,(1,1,2,1,1,1,2,1,1),(-6.414213562373,-5.
    ,0.,4.031128874149,5.833904511881,7.248118074254,12.248118074254,
    16.279246948404,18.082022586136),.UNSPECIFIED.);
#173 = CARTESIAN_POINT('',(0.47496531905,-2.442275294882,0.));
#174 = CARTESIAN_POINT('',(-2.189155057198,-1.643426257696,0.));
#175 = CARTESIAN_POINT('',(-1.216088216656,1.586942788332,0.));
#176 = CARTESIAN_POINT('',(0.889066097508,3.464467265458,0.));
#177 = CARTESIAN_POINT('',(3.259999129806,0.996554199685,0.));
#178 = CARTESIAN_POINT('',(0.47496531905,-2.442275294882,0.));
#179 = CARTESIAN_POINT('',(-2.189155057198,-1.643426257696,0.));
#180 = VECTOR('',#181,1.);
#181 = DIRECTION('',(-0.,-0.,-1.));
#182 = DEFINITIONAL_REPRESENTATION('',(#183),#187);
#183 = LINE('',#184,#185);
#184 = CARTESIAN_POINT('',(0.,0.));
#185 = VECTOR('',#186,1.);
#186 = DIRECTION('',(0.,-1.));
#187 = ( GEOMETRIC_REPRESENTATION_CONTEXT(2) 
PARAMETRIC_REPRESENTATION_CONTEXT() REPRESENTATION_CONTEXT('2D SPACE',''
  ) );
#188 = PCURVE('',#171,#189);
#189 = DEFINITIONAL_REPRESENTATION('',(#190),#194);
#190 = LINE('',#191,#192);
#191 = CARTESIAN_POINT('',(12.248118074254,0.));
#192 = VECTOR('',#193,1.);
#193 = DIRECTION('',(0.,-1.));
#194 = ( GEOMETRIC_REPRESENTATION_CONTEXT(2) 
PARAMETRIC_REPRESENTATION_CONTEXT() REPRESENTATION_CONTEXT('2D SPACE',''
  ) );
#195 = ORIENTED_EDGE('',*,*,#196,.T.);
#196 = EDGE_CURVE('',#163,#163,#197,.T.);
#197 = SURFACE_CURVE('',#198,(#206,#213),.PCURVE_S1.);
#198 = B_SPLINE_CURVE_WITH_KNOTS('',3,(#199,#200,#201,#202,#203,#204,
    #205),.UNSPECIFIED.,.T.,.F.,(1,1,2,1,1,1,2,1,1),(-6.414213562373,-5.
    ,0.,4.031128874149,5.833904511881,7.248118074254,12.248118074254,
    16.279246948404,18.082022586136),.UNSPECIFIED.);
#199 = CARTESIAN_POINT('',(0.47496531905,-2.442275294882,0.5));
#200 = CARTESIAN_POINT('',(-2.189155057198,-1.643426257696,0.5));
#201 = CARTESIAN_POINT('',(-1.216088216656,1.586942788332,0.5));
#202 = CARTESIAN_POINT('',(0.889066097508,3.464467265458,0.5));
#203 = CARTESIAN_POINT('',(3.259999129806,0.996554199685,0.5));
#204 = CARTESIAN_POINT('',(0.47496531905,-2.442275294882,0.5));
#205 = CARTESIAN_POINT('',(-2.189155057198,-1.643426257696,0.5));
#206 = PCURVE('',#171,#207);
#207 = DEFINITIONAL_REPRESENTATION('',(#208),#212);
#208 = LINE('',#209,#210);
#209 = CARTESIAN_POINT('',(0.,-0.5));
#210 = VECTOR('',#211,1.);
#211 = DIRECTION('',(1.,0.));
#212 = ( GEOMETRIC_REPRESENTATION_CONTEXT(2) 
PARAMETRIC_REPRESENTATION_CONTEXT() REPRESENTATION_CONTEXT('2D SPACE',''
  ) );
#213 = PCURVE('',#214,#219);
#214 = PLANE('',#215);
#215 = AXIS2_PLACEMENT_3D('',#216,#217,#218);
#216 = CARTESIAN_POINT('',(0.229818457823,0.464072084173,0.5));
#217 = DIRECTION('',(-0.,-0.,-1.));
#218 = DIRECTION('',(-1.,0.,0.));
#219 = DEFINITIONAL_REPRESENTATION('',(#220),#228);
#220 = B_SPLINE_CURVE_WITH_KNOTS('',3,(#221,#222,#223,#224,#225,#226,
    #227),.UNSPECIFIED.,.T.,.F.,(1,1,2,1,1,1,2,1,1),(-6.414213562373,-5.
    ,0.,4.031128874149,5.833904511881,7.248118074254,12.248118074254,
    16.279246948404,18.082022586136),.UNSPECIFIED.);
#221 = CARTESIAN_POINT('',(-0.245146861227,-2.906347379055));
#222 = CARTESIAN_POINT('',(2.418973515021,-2.107498341869));
#223 = CARTESIAN_POINT('',(1.445906674478,1.122870704159));
#224 = CARTESIAN_POINT('',(-0.659247639685,3.000395181285));
#225 = CARTESIAN_POINT('',(-3.030180671983,0.532482115512));
#226 = CARTESIAN_POINT('',(-0.245146861227,-2.906347379055));
#227 = CARTESIAN_POINT('',(2.418973515021,-2.107498341869));
#228 = ( GEOMETRIC_REPRESENTATION_CONTEXT(2) 
PARAMETRIC_REPRESENTATION_CONTEXT() REPRESENTATION_CONTEXT('2D SPACE',''
  ) );
#229 = ORIENTED_EDGE('',*,*,#160,.F.);
#230 = ORIENTED_EDGE('',*,*,#231,.F.);
#231 = EDGE_CURVE('',#161,#161,#232,.T.);
#232 = SURFACE_CURVE('',#233,(#241,#248),.PCURVE_S1.);
#233 = B_SPLINE_CURVE_WITH_KNOTS('',3,(#234,#235,#236,#237,#238,#239,
    #240),.UNSPECIFIED.,.T.,.F.,(1,1,2,1,1,1,2,1,1),(-6.414213562373,-5.
    ,0.,4.031128874149,5.833904511881,7.248118074254,12.248118074254,
    16.279246948404,18.082022586136),.UNSPECIFIED.);
#234 = CARTESIAN_POINT('',(0.47496531905,-2.442275294882,0.));
#235 = CARTESIAN_POINT('',(-2.189155057198,-1.643426257696,0.));
#236 = CARTESIAN_POINT('',(-1.216088216656,1.586942788332,0.));
#237 = CARTESIAN_POINT('',(0.889066097508,3.464467265458,0.));
#238 = CARTESIAN_POINT('',(3.259999129806,0.996554199685,0.));
#239 = CARTESIAN_POINT('',(0.47496531905,-2.442275294882,0.));
#240 = CARTESIAN_POINT('',(-2.189155057198,-1.643426257696,0.));
#241 = PCURVE('',#171,#242);
#242 = DEFINITIONAL_REPRESENTATION('',(#243),#247);
#243 = LINE('',#244,#245);
#244 = CARTESIAN_POINT('',(0.,0.));
#245 = VECTOR('',#246,1.);
#246 = DIRECTION('',(1.,0.));
#247 = ( GEOMETRIC_REPRESENTATION_CONTEXT(2) 
PARAMETRIC_REPRESENTATION_CONTEXT() REPRESENTATION_CONTEXT('2D SPACE',''
  ) );
#248 = PCURVE('',#249,#254);
#249 = PLANE('',#250);
#250 = AXIS2_PLACEMENT_3D('',#251,#252,#253);
#251 = CARTESIAN_POINT('',(0.229818457823,0.464072084173,0.));
#252 = DIRECTION('',(-0.,-0.,-1.));
#253 = DIRECTION('',(-1.,0.,0.));
#254 = DEFINITIONAL_REPRESENTATION('',(#255),#263);
#255 = B_SPLINE_CURVE_WITH_KNOTS('',3,(#256,#257,#258,#259,#260,#261,
    #262),.UNSPECIFIED.,.T.,.F.,(1,1,2,1,1,1,2,1,1),(-6.414213562373,-5.
    ,0.,4.031128874149,5.833904511881,7.248118074254,12.248118074254,
    16.279246948404,18.082022586136),.UNSPECIFIED.);
#256 = CARTESIAN_POINT('',(-0.245146861227,-2.906347379055));
#257 = CARTESIAN_POINT('',(2.418973515021,-2.107498341869));
#258 = CARTESIAN_POINT('',(1.445906674478,1.122870704159));
#259 = CARTESIAN_POINT('',(-0.659247639685,3.000395181285));
#260 = CARTESIAN_POINT('',(-3.030180671983,0.532482115512));
#261 = CARTESIAN_POINT('',(-0.245146861227,-2.906347379055));
#262 = CARTESIAN_POINT('',(2.418973515021,-2.107498341869));
#263 = ( GEOMETRIC_REPRESENTATION_CONTEXT(2) 
PARAMETRIC_REPRESENTATION_CONTEXT() REPRESENTATION_CONTEXT('2D SPACE',''
  ) );
#264 = ADVANCED_FACE('',(#265,#268),#249,.T.);
#265 = FACE_BOUND('',#266,.T.);
#266 = EDGE_LOOP('',(#267));
#267 = ORIENTED_EDGE('',*,*,#231,.T.);
#268 = FACE_BOUND('',#269,.T.);
#269 = EDGE_LOOP('',(#270));
#270 = ORIENTED_EDGE('',*,*,#271,.T.);
#271 = EDGE_CURVE('',#272,#272,#274,.T.);
#272 = VERTEX_POINT('',#273);
#273 = CARTESIAN_POINT('',(1.,0.,0.));
#274 = SURFACE_CURVE('',#275,(#280,#291),.PCURVE_S1.);
#275 = CIRCLE('',#276,1.);
#276 = AXIS2_PLACEMENT_3D('',#277,#278,#279);
#277 = CARTESIAN_POINT('',(0.,0.,0.));
#278 = DIRECTION('',(0.,0.,1.));
#279 = DIRECTION('',(1.,0.,0.));
#280 = PCURVE('',#249,#281);
#281 = DEFINITIONAL_REPRESENTATION('',(#282),#290);
#282 = ( BOUNDED_CURVE() B_SPLINE_CURVE(2,(#283,#284,#285,#286,#287,#288
,#289),.UNSPECIFIED.,.T.,.F.) B_SPLINE_CURVE_WITH_KNOTS((1,2,2,2,2,1),(
    -2.094395102393,0.,2.094395102393,4.188790204786,6.28318530718,
8.377580409573),.UNSPECIFIED.) CURVE() GEOMETRIC_REPRESENTATION_ITEM() 
RATIONAL_B_SPLINE_CURVE((1.,0.5,1.,0.5,1.,0.5,1.)) REPRESENTATION_ITEM(
  '') );
#283 = CARTESIAN_POINT('',(-0.770181542177,-0.464072084173));
#284 = CARTESIAN_POINT('',(-0.770181542177,1.267978723396));
#285 = CARTESIAN_POINT('',(0.729818457823,0.401953319611));
#286 = CARTESIAN_POINT('',(2.229818457823,-0.464072084173));
#287 = CARTESIAN_POINT('',(0.729818457823,-1.330097487957));
#288 = CARTESIAN_POINT('',(-0.770181542177,-2.196122891742));
#289 = CARTESIAN_POINT('',(-0.770181542177,-0.464072084173));
#290 = ( GEOMETRIC_REPRESENTATION_CONTEXT(2) 
PARAMETRIC_REPRESENTATION_CONTEXT() REPRESENTATION_CONTEXT('2D SPACE',''
  ) );
#291 = PCURVE('',#292,#297);
#292 = CYLINDRICAL_SURFACE('',#293,1.);
#293 = AXIS2_PLACEMENT_3D('',#294,#295,#296);
#294 = CARTESIAN_POINT('',(0.,0.,0.));
#295 = DIRECTION('',(-0.,-0.,-1.));
#296 = DIRECTION('',(1.,0.,0.));
#297 = DEFINITIONAL_REPRESENTATION('',(#298),#302);
#298 = LINE('',#299,#300);
#299 = CARTESIAN_POINT('',(-0.,0.));
#300 = VECTOR('',#301,1.);
#301 = DIRECTION('',(-1.,0.));
#302 = ( GEOMETRIC_REPRESENTATION_CONTEXT(2) 
PARAMETRIC_REPRESENTATION_CONTEXT() REPRESENTATION_CONTEXT('2D SPACE',''
  ) );
#303 = ADVANCED_FACE('',(#304,#307),#214,.F.);
#304 = FACE_BOUND('',#305,.F.);
#305 = EDGE_LOOP('',(#306));
#306 = ORIENTED_EDGE('',*,*,#196,.T.);
#307 = FACE_BOUND('',#308,.F.);
#308 = EDGE_LOOP('',(#309));
#309 = ORIENTED_EDGE('',*,*,#310,.F.);
#310 = EDGE_CURVE('',#311,#311,#313,.T.);
#311 = VERTEX_POINT('',#312);
#312 = CARTESIAN_POINT('',(1.,0.,0.5));
#313 = SURFACE_CURVE('',#314,(#319,#326),.PCURVE_S1.);
#314 = CIRCLE('',#315,1.);
#315 = AXIS2_PLACEMENT_3D('',#316,#317,#318);
#316 = CARTESIAN_POINT('',(0.,0.,0.5));
#317 = DIRECTION('',(0.,0.,-1.));
#318 = DIRECTION('',(1.,0.,0.));
#319 = PCURVE('',#214,#320);
#320 = DEFINITIONAL_REPRESENTATION('',(#321),#325);
#321 = CIRCLE('',#322,1.);
#322 = AXIS2_PLACEMENT_2D('',#323,#324);
#323 = CARTESIAN_POINT('',(0.229818457823,-0.464072084173));
#324 = DIRECTION('',(-1.,0.));
#325 = ( GEOMETRIC_REPRESENTATION_CONTEXT(2) 
PARAMETRIC_REPRESENTATION_CONTEXT() REPRESENTATION_CONTEXT('2D SPACE',''
  ) );
#326 = PCURVE('',#292,#327);
#327 = DEFINITIONAL_REPRESENTATION('',(#328),#332);
#328 = LINE('',#329,#330);
#329 = CARTESIAN_POINT('',(-6.28318530718,-0.5));
#330 = VECTOR('',#331,1.);
#331 = DIRECTION('',(1.,-0.));
#332 = ( GEOMETRIC_REPRESENTATION_CONTEXT(2) 
PARAMETRIC_REPRESENTATION_CONTEXT() REPRESENTATION_CONTEXT('2D SPACE',''
  ) );
#333 = ADVANCED_FACE('',(#334),#292,.F.);
#334 = FACE_BOUND('',#335,.T.);
#335 = EDGE_LOOP('',(#336,#337,#358,#359));
#336 = ORIENTED_EDGE('',*,*,#271,.F.);
#337 = ORIENTED_EDGE('',*,*,#338,.T.);
#338 = EDGE_CURVE('',#272,#311,#339,.T.);
#339 = SEAM_CURVE('',#340,(#344,#351),.PCURVE_S1.);
#340 = LINE('',#341,#342);
#341 = CARTESIAN_POINT('',(1.,0.,0.));
#342 = VECTOR('',#343,1.);
#343 = DIRECTION('',(0.,0.,1.));
#344 = PCURVE('',#292,#345);
#345 = DEFINITIONAL_REPRESENTATION('',(#346),#350);
#346 = LINE('',#347,#348);
#347 = CARTESIAN_POINT('',(-6.28318530718,0.));
#348 = VECTOR('',#349,1.);
#349 = DIRECTION('',(-0.,-1.));
#350 = ( GEOMETRIC_REPRESENTATION_CONTEXT(2) 
PARAMETRIC_REPRESENTATION_CONTEXT() REPRESENTATION_CONTEXT('2D SPACE',''
  ) );
#351 = PCURVE('',#292,#352);
#352 = DEFINITIONAL_REPRESENTATION('',(#353),#357);
#353 = LINE('',#354,#355);
#354 = CARTESIAN_POINT('',(-0.,0.));
#355 = VECTOR('',#356,1.);
#356 = DIRECTION('',(-0.,-1.));
#357 = ( GEOMETRIC_REPRESENTATION_CONTEXT(2) 
PARAMETRIC_REPRESENTATION_CONTEXT() REPRESENTATION_CONTEXT('2D SPACE',''
  ) );
#358 = ORIENTED_EDGE('',*,*,#310,.F.);
#359 = ORIENTED_EDGE('',*,*,#338,.F.);
#360 = ( GEOMETRIC_REPRESENTATION_CONTEXT(3) 
GLOBAL_UNCERTAINTY_ASSIGNED_CONTEXT((#364)) GLOBAL_UNIT_ASSIGNED_CONTEXT
((#361,#362,#363)) REPRESENTATION_CONTEXT('Context #1',
  '3D Context with UNIT and UNCERTAINTY') );
#361 = ( LENGTH_UNIT() NAMED_UNIT(*) SI_UNIT(.MILLI.,.METRE.) );
#362 = ( NAMED_UNIT(*) PLANE_ANGLE_UNIT() SI_UNIT($,.RADIAN.) );
#363 = ( NAMED_UNIT(*) SI_UNIT($,.STERADIAN.) SOLID_ANGLE_UNIT() );
#364 = UNCERTAINTY_MEASURE_WITH_UNIT(LENGTH_MEASURE(1.E-07),#361,
  'distance_accuracy_value','confusion accuracy');
#365 = CONTEXT_DEPENDENT_SHAPE_REPRESENTATION(#366,#368);
#366 = ( REPRESENTATION_RELATIONSHIP('','',#153,#10) 
REPRESENTATION_RELATIONSHIP_WITH_TRANSFORMATION(#367) 
SHAPE_REPRESENTATION_RELATIONSHIP() );
#367 = ITEM_DEFINED_TRANSFORMATION('','',#11,#19);
#368 = PRODUCT_DEFINITION_SHAPE('Placement','Placement of an item',#369
  );
#369 = NEXT_ASSEMBLY_USAGE_OCCURRENCE('2',
  '6c7ff4e8-8e28-11f1-a379-de0ea6d7b110','',#5,#148,$);
#370 = PRODUCT_RELATED_PRODUCT_CATEGORY('part',$,(#150));
#371 = MECHANICAL_DESIGN_GEOMETRIC_PRESENTATION_REPRESENTATION('',(#372)
  ,#360);
#372 = STYLED_ITEM('color',(#373),#154);
#373 = PRESENTATION_STYLE_ASSIGNMENT((#374));
#374 = SURFACE_STYLE_USAGE(.BOTH.,#375);
#375 = SURFACE_SIDE_STYLE('',(#376));
#376 = SURFACE_STYLE_FILL_AREA(#377);
#377 = FILL_AREA_STYLE('',(#378));
#378 = FILL_AREA_STYLE_COLOUR('',#379);
#379 = DRAUGHTING_PRE_DEFINED_COLOUR('blue');
#380 = MECHANICAL_DESIGN_GEOMETRIC_PRESENTATION_REPRESENTATION('',(#381)
  ,#135);
#381 = STYLED_ITEM('color',(#382),#37);
#382 = PRESENTATION_STYLE_ASSIGNMENT((#383));
#383 = SURFACE_STYLE_USAGE(.BOTH.,#384);
#384 = SURFACE_SIDE_STYLE('',(#385));
#385 = SURFACE_STYLE_FILL_AREA(#386);
#386 = FILL_AREA_STYLE('',(#387));
#387 = FILL_AREA_STYLE_COLOUR('',#388);
#388 = DRAUGHTING_PRE_DEFINED_COLOUR('red');
ENDSEC;
END-ISO-10303-21;
